<?xml version="1.0" encoding="iso-8859-1"?>
<!-- Generator: Adobe Illustrator 19.0.0, SVG Export Plug-In . SVG Version: 6.00 Build 0)  -->
<svg version="1.1" id="Capa_1" xmlns="http://www.w3.org/2000/svg" xmlns:xlink="http://www.w3.org/1999/xlink" x="0px" y="0px"
	 viewBox="0 0 320.012 320.012" style="enable-background:new 0 0 320.012 320.012;" xml:space="preserve">
<g>
	<g>
		<path d="M296.07,2.188c-4.864-2.88-10.976-2.912-15.904-0.128L48.006,132.652V16.012c0-8.832-7.168-16-16-16
			c-8.832,0-16,7.168-16,16v288c0,8.832,7.168,16,16,16c8.832,0,16-7.168,16-16v-116.64l232.16,130.592
			c2.432,1.376,5.12,2.048,7.84,2.048c2.784,0,5.6-0.736,8.064-2.176c4.896-2.88,7.936-8.128,7.936-13.824v-288
			C304.006,10.316,300.966,5.068,296.07,2.188z M272.006,276.652l-207.36-116.64l207.36-116.64V276.652z"/>
	</g>
</g>
<g>
</g>
<g>
</g>
<g>
</g>
<g>
</g>
<g>
</g>
<g>
</g>
<g>
</g>
<g>
</g>
<g>
</g>
<g>
</g>
<g>
</g>
<g>
</g>
<g>
</g>
<g>
</g>
<g>
</g>
</svg>
