<?xml version="1.0" encoding="iso-8859-1"?>
<!-- Generator: Adobe Illustrator 19.0.0, SVG Export Plug-In . SVG Version: 6.00 Build 0)  -->
<svg version="1.1" id="Capa_1" xmlns="http://www.w3.org/2000/svg" xmlns:xlink="http://www.w3.org/1999/xlink" x="0px" y="0px"
	 viewBox="0 0 512.016 512.016" style="enable-background:new 0 0 512.016 512.016;" xml:space="preserve">
<g>
	<g>
		<path d="M507.336,100.712l-96-96.032c-4.576-4.576-11.456-5.92-17.44-3.456s-9.888,8.32-9.888,14.784v48h-192
			c-105.888,0-192,86.112-192,192c0,8.832,7.168,16,16,16h64c8.832,0,16-7.168,16-16c0-52.928,43.072-96,96-96h192v48
			c0,6.464,3.904,12.32,9.888,14.784c5.952,2.432,12.832,1.088,17.44-3.456l96-96C513.576,117.096,513.576,106.952,507.336,100.712z
			 M416.008,169.384v-25.376c0-8.832-7.168-16-16-16h-208c-65.152,0-119.104,48.928-127.008,112H32.776
			c8.064-80.736,76.416-144,159.232-144h208c8.832,0,16-7.168,16-16V54.632l57.376,57.376L416.008,169.384z"/>
	</g>
</g>
<g>
	<g>
		<path d="M496.008,240.008h-64c-8.832,0-16,7.168-16,16c0,52.928-43.072,96-96,96h-192v-48c0-6.464-3.904-12.32-9.888-14.784
			c-5.92-2.464-12.864-1.12-17.44,3.456l-96,96c-6.24,6.24-6.24,16.384,0,22.624l96,96c3.072,3.072,7.168,4.704,11.328,4.704
			c2.048,0,4.16-0.416,6.112-1.216c5.984-2.464,9.888-8.32,9.888-14.784v-48h192c105.888,0,192-86.112,192-192
			C512.008,247.176,504.84,240.008,496.008,240.008z M320.008,416.008h-208c-8.832,0-16,7.168-16,16v25.376l-57.376-57.376
			l57.376-57.376v25.376c0,8.832,7.168,16,16,16h208c65.152,0,119.104-48.928,127.008-112h32.224
			C471.176,352.744,402.824,416.008,320.008,416.008z"/>
	</g>
</g>
<g>
</g>
<g>
</g>
<g>
</g>
<g>
</g>
<g>
</g>
<g>
</g>
<g>
</g>
<g>
</g>
<g>
</g>
<g>
</g>
<g>
</g>
<g>
</g>
<g>
</g>
<g>
</g>
<g>
</g>
</svg>
